<svg xmlns="http://www.w3.org/2000/svg" viewBox="0 0 212.42 50.64"><defs><style>.cls-1{fill:#006837;}.cls-2{fill:#fff;}</style></defs><title>Asset 1ldpi</title><g id="Layer_2" data-name="Layer 2"><g id="Layer_1-2" data-name="Layer 1"><rect class="cls-1" width="96.96" height="50.64"/><path class="cls-2" d="M3.69,7.57H21v4.72H9.59v5h9.67V22H9.59v5.73H21.37v4.72H3.69Z" transform="translate(-0.96)"/><path class="cls-2" d="M32.36,22.62l-6.42-9.11h6.32l2,3.06c.59,1.06,1.39,2.19,2.05,3.24h.16c.52-1,1.14-2.19,1.65-3.25l1.75-3h6.15l-6.48,9.73,6.89,9.22H40.14l-2.26-3.12c-.73-1.06-1.55-2.24-2.27-3.31h-.16c-.6,1.08-1.26,2.19-1.85,3.32l-2,3.11H25.49Z" transform="translate(-0.96)"/><path class="cls-2" d="M50.45,27.21c0-4.25,3.67-6.41,13-6.95-.21-1.7-1.55-2.73-4.21-2.73a14.28,14.28,0,0,0-6,1.77l-2.1-3.68a19.52,19.52,0,0,1,9.29-2.57c5.58,0,9,2.77,9,8.58V32.46H64.58l-.43-2.13H64a12.5,12.5,0,0,1-7,2.59C53,32.92,50.45,30.39,50.45,27.21Zm13-.45V23.65c-5.84.28-7.41,1.49-7.41,3.11,0,1.22,1.08,1.81,2.74,1.81A7.78,7.78,0,0,0,63.5,26.76Z" transform="translate(-0.96)"/><path class="cls-2" d="M73.4,13.51h4.42l.43,2.34h.14a4.48,4.48,0,0,1,4.29-2.8c1.72,0,3,1.07,3.45,3.1a4.63,4.63,0,0,1,4.39-3.1c2.83,0,4.43,2.33,4.43,6.12V32.46H89.36V19.56c0-1.17-.29-1.73-1.07-1.73s-1.27.6-1.82,1.85V32.46h-4.6V19.56c0-1.17-.35-1.73-1.13-1.73s-1.23.6-1.76,1.85V32.46H73.4Z" transform="translate(-0.96)"/><path class="cls-1" d="M98.64,7.57h6l5.48,12.37,2.23,5.47h.14c-.26-2.62-.81-6.1-.81-9V7.57h5.62V32.46h-6l-5.48-12.4-2.23-5.44h-.14c.27,2.75.82,6.08.82,9v8.83H98.64Z" transform="translate(-0.96)"/><path class="cls-1" d="M122.45,27.21c0-4.25,3.67-6.41,13-6.95-.21-1.7-1.55-2.73-4.21-2.73a14.24,14.24,0,0,0-6,1.77l-2.1-3.68a19.52,19.52,0,0,1,9.29-2.57c5.58,0,8.95,2.77,8.95,8.58V32.46h-4.8l-.43-2.13H136a12.5,12.5,0,0,1-7,2.59C125,32.92,122.45,30.39,122.45,27.21Zm13-.45V23.65c-5.84.28-7.41,1.49-7.41,3.11,0,1.22,1.08,1.81,2.74,1.81A7.81,7.81,0,0,0,135.5,26.76Z" transform="translate(-0.96)"/><path class="cls-1" d="M155.12,17.92h-8V13.51H161v19h-5.89Zm-1.23-10.8c0-2.06,1.64-3.49,3.91-3.49s3.91,1.43,3.91,3.49-1.64,3.43-3.91,3.43S153.89,9.19,153.89,7.12Z" transform="translate(-0.96)"/><path class="cls-1" d="M169.68,38.66l1.71-4a10,10,0,0,0,4,.89c2.83,0,3.69-1.23,3.69-4V17.92h-8V13.51H185V31.32C185,36,183,40,175.78,40A14.71,14.71,0,0,1,169.68,38.66Zm8.21-31.54c0-2.06,1.64-3.49,3.91-3.49s3.91,1.43,3.91,3.49-1.64,3.43-3.91,3.43S177.89,9.19,177.89,7.12Z" transform="translate(-0.96)"/><path class="cls-1" d="M194.45,27.21c0-4.25,3.67-6.41,13.05-6.95-.21-1.7-1.55-2.73-4.21-2.73a14.24,14.24,0,0,0-6,1.77l-2.1-3.68a19.52,19.52,0,0,1,9.29-2.57c5.57,0,8.95,2.77,8.95,8.58V32.46h-4.81l-.42-2.13H208a12.5,12.5,0,0,1-7,2.59C197,32.92,194.45,30.39,194.45,27.21Zm13.05-.45V23.65c-5.84.28-7.41,1.49-7.41,3.11,0,1.22,1.08,1.81,2.74,1.81A7.81,7.81,0,0,0,207.5,26.76Z" transform="translate(-0.96)"/></g></g></svg>